<?xml version="1.0" encoding="UTF-8"?>
<svg version="1.1" xmlns="http://www.w3.org/2000/svg" width="500" height="500">
<path d="M0 0 C165 0 330 0 500 0 C500 165 500 330 500 500 C335 500 170 500 0 500 C0 335 0 170 0 0 Z " fill="#FAD02C" transform="translate(0,0)"/>
<path d="M0 0 C0.70609406 0.00054382 1.41218811 0.00108765 2.13967896 0.00164795 C13.99651538 0.04353957 25.20918509 1.01845921 36.625 4.375 C37.3567041 4.58930664 38.0884082 4.80361328 38.84228516 5.02441406 C59.05311477 11.16407356 79.37008652 21.50770556 93.625 37.375 C94.45 38.179375 95.275 38.98375 96.125 39.8125 C111.84789806 55.92847051 122.8264388 74.55671048 128.625 96.375 C128.96289551 97.60790771 129.30079102 98.84081543 129.64892578 100.11108398 C132.36832251 110.47407637 133.35256203 120.24353573 133.25 130.9375 C133.24701904 131.71503632 133.24403809 132.49257263 133.2409668 133.29367065 C133.14519129 147.28565081 131.33785324 160.12645307 126.625 173.375 C126.16746338 174.66277344 126.16746338 174.66277344 125.70068359 175.9765625 C119.8626635 191.86034884 111.70575851 205.59620777 100.625 218.375 C99.76875863 219.45669428 98.91419858 220.53972522 98.0625 221.625 C94.85129051 225.24790301 91.36226948 228.30510007 87.625 231.375 C86.6865625 232.15101563 85.748125 232.92703125 84.78125 233.7265625 C71.47737583 244.48033459 56.83228023 251.9928197 40.625 257.375 C39.50472412 257.76244385 39.50472412 257.76244385 38.36181641 258.15771484 C6.38479768 268.82128695 -29.79596002 263.12345938 -59.34277344 248.39404297 C-68.44639862 243.7137422 -76.48182213 237.83594802 -84.375 231.375 C-85.1484375 230.74464844 -85.921875 230.11429688 -86.71875 229.46484375 C-104.80023278 214.19989963 -117.19701111 192.67857586 -124.375 170.375 C-124.61911621 169.65795898 -124.86323242 168.94091797 -125.11474609 168.20214844 C-134.73433413 139.09607783 -131.59235251 103.2910585 -118.21875 75.94140625 C-117.60974071 74.74973903 -116.99515045 73.56090745 -116.375 72.375 C-115.90707031 71.46983643 -115.90707031 71.46983643 -115.4296875 70.54638672 C-107.59187409 55.60754622 -97.37656364 42.14636842 -84.375 31.375 C-83.64796875 30.74851563 -82.9209375 30.12203125 -82.171875 29.4765625 C-65.52188451 15.52806053 -46.28281826 7.58780034 -25.375 2.375 C-24.22209473 2.07698486 -24.22209473 2.07698486 -23.04589844 1.77294922 C-15.42607085 0.00468147 -7.78998832 -0.02255227 0 0 Z " fill="#FEFDFD" transform="translate(248.375,118.625)"/>
<path d="M0 0 C9.9 0 19.8 0 30 0 C30 0.99 30 1.98 30 3 C30.99 3 31.98 3 33 3 C33 6.63 33 10.26 33 14 C32.01 14 31.02 14 30 14 C30 14.99 30 15.98 30 17 C28.68 17 27.36 17 26 17 C26 17.99 26 18.98 26 20 C26.763125 19.938125 27.52625 19.87625 28.3125 19.8125 C31 20 31 20 32.6496582 21.26098633 C34.29009599 23.37359497 34.35260353 24.36791018 34.29296875 27.01171875 C34.2784668 28.14770508 34.2784668 28.14770508 34.26367188 29.30664062 C34.23853516 30.09232422 34.21339844 30.87800781 34.1875 31.6875 C34.16719727 32.88342773 34.16719727 32.88342773 34.14648438 34.10351562 C34.11117089 36.06929967 34.05736447 38.03473582 34 40 C33.34 40 32.68 40 32 40 C32 40.99 32 41.98 32 43 C31.01 43 30.02 43 29 43 C29 43.99 29 44.98 29 46 C19.43 46 9.86 46 0 46 C0 30.82 0 15.64 0 0 Z " fill="#070707" transform="translate(172,192)"/>
<path d="M0 0 C4.723125 -0.061875 9.44625 -0.12375 14.3125 -0.1875 C15.79919189 -0.21481201 17.28588379 -0.24212402 18.81762695 -0.27026367 C19.98769287 -0.27775635 21.15775879 -0.28524902 22.36328125 -0.29296875 C23.56251221 -0.3086792 24.76174316 -0.32438965 25.99731445 -0.34057617 C29 0 29 0 30.89648438 1.34960938 C32.53425001 3.79901108 32.29003607 5.78231139 32.1875 8.6875 C32.14689453 10.17830078 32.14689453 10.17830078 32.10546875 11.69921875 C32.07066406 12.45847656 32.03585938 13.21773438 32 14 C31.01 14 30.02 14 29 14 C29 14.99 29 15.98 29 17 C27.68 17 26.36 17 25 17 C25 17.99 25 18.98 25 20 C26.98 20 28.96 20 31 20 C31 20.99 31 21.98 31 23 C31.99 23 32.98 23 34 23 C34 28.61 34 34.22 34 40 C33.01 40 32.02 40 31 40 C31 40.99 31 41.98 31 43 C30.01 43 29.02 43 28 43 C28 43.99 28 44.98 28 46 C18.76 46 9.52 46 0 46 C0 30.82 0 15.64 0 0 Z " fill="#FF3232" transform="translate(140,261)"/>
<path d="M0 0 C1.093125 0.00257813 2.18625 0.00515625 3.3125 0.0078125 C4.405625 0.00523437 5.49875 0.00265625 6.625 0 C9.3125 0.1328125 9.3125 0.1328125 10.3125 1.1328125 C10.54731693 3.31574024 10.72613323 5.50484424 10.875 7.6953125 C10.95878906 8.89285156 11.04257812 10.09039062 11.12890625 11.32421875 C11.18949219 12.25105469 11.25007813 13.17789062 11.3125 14.1328125 C11.6425 13.8028125 11.9725 13.4728125 12.3125 13.1328125 C14.66563555 13.06009509 17.02083668 13.04910382 19.375 13.0703125 C20.66535156 13.07933594 21.95570313 13.08835937 23.28515625 13.09765625 C24.28417969 13.10925781 25.28320312 13.12085938 26.3125 13.1328125 C26.3125 14.1228125 26.3125 15.1128125 26.3125 16.1328125 C27.3025 16.4628125 28.2925 16.7928125 29.3125 17.1328125 C29.3125 27.3628125 29.3125 37.5928125 29.3125 48.1328125 C25.0225 48.1328125 20.7325 48.1328125 16.3125 48.1328125 C16.3125 37.9028125 16.3125 27.6728125 16.3125 17.1328125 C15.3225 17.1328125 14.3325 17.1328125 13.3125 17.1328125 C13.3125 17.7928125 13.3125 18.4528125 13.3125 19.1328125 C12.3225 19.1328125 11.3325 19.1328125 10.3125 19.1328125 C10.3125 28.7028125 10.3125 38.2728125 10.3125 48.1328125 C5.6925 48.1328125 1.0725 48.1328125 -3.6875 48.1328125 C-3.71214296 41.45760368 -3.73033267 34.7824211 -3.74243164 28.10717773 C-3.74747325 25.83438659 -3.75430637 23.5615987 -3.76293945 21.28881836 C-3.77501261 18.02977699 -3.78072987 14.77077833 -3.78515625 11.51171875 C-3.79031754 10.48881241 -3.79547882 9.46590607 -3.80079651 8.41200256 C-3.80087204 7.47110275 -3.80094757 6.53020294 -3.80102539 5.56079102 C-3.803246 4.72806168 -3.80546661 3.89533234 -3.80775452 3.03736877 C-3.61543614 -0.00851407 -3.07411684 0.15191856 0 0 Z " fill="#FF3939" transform="translate(260.6875,258.8671875)"/>
<path d="M0 0 C7.59 0 15.18 0 23 0 C23.33 0.99 23.66 1.98 24 3 C24.99 3.33 25.98 3.66 27 4 C27 14.23 27 24.46 27 35 C23.37 35 19.74 35 16 35 C16 34.01 16 33.02 16 32 C15.01 32 14.02 32 13 32 C13 32.99 13 33.98 13 35 C7.72 35 2.44 35 -3 35 C-3 34.01 -3 33.02 -3 32 C-3.99 32 -4.98 32 -6 32 C-6 27.71 -6 23.42 -6 19 C-5.01 19 -4.02 19 -3 19 C-3 18.01 -3 17.02 -3 16 C1.29 16 5.58 16 10 16 C10.33 15.01 10.66 14.02 11 13 C12.32 13 13.64 13 15 13 C14.67 10.03 14.34 7.06 14 4 C13.01 4 12.02 4 11 4 C10.87625 4.804375 10.7525 5.60875 10.625 6.4375 C10.315625 7.7059375 10.315625 7.7059375 10 9 C9.01 9.495 9.01 9.495 8 10 C7.34786708 12.02463255 7.34786708 12.02463255 7 14 C5.18757948 14.02687279 3.37504767 14.04633715 1.5625 14.0625 C0.55316406 14.07410156 -0.45617187 14.08570313 -1.49609375 14.09765625 C-4 14 -4 14 -5 13 C-5.07179964 11.48071962 -5.08392007 9.95832518 -5.0625 8.4375 C-5.05347656 7.61121094 -5.04445313 6.78492188 -5.03515625 5.93359375 C-5.02355469 5.29550781 -5.01195312 4.65742188 -5 4 C-4.0409375 3.8453125 -4.0409375 3.8453125 -3.0625 3.6875 C-2.381875 3.460625 -1.70125 3.23375 -1 3 C-0.67 2.01 -0.34 1.02 0 0 Z " fill="#FF3B3B" transform="translate(302,272)"/>
<path d="M0 0 C7.92 0 15.84 0 24 0 C24 0.99 24 1.98 24 3 C24.99 3 25.98 3 27 3 C27 13.56 27 24.12 27 35 C23.7 35 20.4 35 17 35 C17 34.01 17 33.02 17 32 C16.01 32 15.02 32 14 32 C14 32.99 14 33.98 14 35 C8.39 35 2.78 35 -3 35 C-3 34.01 -3 33.02 -3 32 C-3.99 32 -4.98 32 -6 32 C-6 28.04 -6 24.08 -6 20 C-5.01 19.67 -4.02 19.34 -3 19 C-2.67 18.01 -2.34 17.02 -2 16 C2.29 16 6.58 16 11 16 C11 15.01 11 14.02 11 13 C12.32 13 13.64 13 15 13 C15 10.03 15 7.06 15 4 C13.68 4 12.36 4 11 4 C11 5.65 11 7.3 11 9 C10.01 9 9.02 9 8 9 C8 10.65 8 12.3 8 14 C4.04 14 0.08 14 -4 14 C-4 10.37 -4 6.74 -4 3 C-2.68 3 -1.36 3 0 3 C0 2.01 0 1.02 0 0 Z " fill="#FF3A3A" transform="translate(185,272)"/>
<path d="M0 0 C6.93 0 13.86 0 21 0 C21 0.66 21 1.32 21 2 C21.99 2.33 22.98 2.66 24 3 C24 3.66 24 4.32 24 5 C24.99 5.33 25.98 5.66 27 6 C27 8.97 27 11.94 27 15 C26.01 15 25.02 15 24 15 C24 15.99 24 16.98 24 18 C18.72 18 13.44 18 8 18 C8 22.29 8 26.58 8 31 C8.99 31 9.98 31 11 31 C11 30.01 11 29.02 11 28 C11.66 28 12.32 28 13 28 C13 26.35 13 24.7 13 23 C17.62 23 22.24 23 27 23 C27 24.65 27 26.3 27 28 C26.01 28 25.02 28 24 28 C24 28.99 24 29.98 24 31 C23.01 31 22.02 31 21 31 C21 31.99 21 32.98 21 34 C14.07 34 7.14 34 0 34 C0 33.01 0 32.02 0 31 C-0.99 31 -1.98 31 -3 31 C-3 30.01 -3 29.02 -3 28 C-3.99 28 -4.98 28 -6 28 C-6 20.74 -6 13.48 -6 6 C-5.01 5.67 -4.02 5.34 -3 5 C-2.67 4.01 -2.34 3.02 -2 2 C-1.34 2 -0.68 2 0 2 C0 1.34 0 0.68 0 0 Z " fill="#0A0A0A" transform="translate(219,204)"/>
<path d="M0 0 C4.27070558 -0.08692074 8.54118458 -0.14036515 12.8125 -0.1875 C14.63491211 -0.22520508 14.63491211 -0.22520508 16.49414062 -0.26367188 C18.23920898 -0.27817383 18.23920898 -0.27817383 20.01953125 -0.29296875 C21.09307861 -0.3086792 22.16662598 -0.32438965 23.27270508 -0.34057617 C26 0 26 0 27.85546875 1.36328125 C29.47758785 3.68296693 29.29639973 5.39240705 29.1875 8.1875 C29.14689453 9.53908203 29.14689453 9.53908203 29.10546875 10.91796875 C29.07066406 11.60503906 29.03585937 12.29210937 29 13 C26.03 13 23.06 13 20 13 C19.67 12.01 19.34 11.02 19 10 C18.01 9.67 17.02 9.34 16 9 C16 6.69 16 4.38 16 2 C15.54625 2.495 15.0925 2.99 14.625 3.5 C13 5 13 5 11 5 C11 7.31 11 9.62 11 12 C11.66 12 12.32 12 13 12 C13 12.99 13 13.98 13 15 C17.29 15 21.58 15 26 15 C26 15.99 26 16.98 26 18 C26.99 18 27.98 18 29 18 C29 22.29 29 26.58 29 31 C28.01 31 27.02 31 26 31 C26 31.99 26 32.98 26 34 C17.42 34 8.84 34 0 34 C0 33.01 0 32.02 0 31 C-0.99 31 -1.98 31 -3 31 C-3 27.7 -3 24.4 -3 21 C1.29 21 5.58 21 10 21 C10 24.3 10 27.6 10 31 C11.32 31 12.64 31 14 31 C14 30.01 14 29.02 14 28 C14.66 28 15.32 28 16 28 C16 25.69 16 23.38 16 21 C15.34 21 14.68 21 14 21 C13.67 20.34 13.34 19.68 13 19 C9.95418731 18.53045739 9.95418731 18.53045739 6.4375 18.375 C4.64119141 18.26285156 4.64119141 18.26285156 2.80859375 18.1484375 C1.88175781 18.09945312 0.95492187 18.05046875 0 18 C0 17.01 0 16.02 0 15 C-0.99 15 -1.98 15 -3 15 C-3 11.04 -3 7.08 -3 3 C-2.01 2.67 -1.02 2.34 0 2 C0 1.34 0 0.68 0 0 Z " fill="#070707" transform="translate(254,204)"/>
<path d="M0 0 C6.6 0 13.2 0 20 0 C20.33 0.99 20.66 1.98 21 3 C21.99 3.33 22.98 3.66 24 4 C24 4.66 24 5.32 24 6 C24.66 6 25.32 6 26 6 C26 8.64 26 11.28 26 14 C21.71 14 17.42 14 13 14 C13 10.7 13 7.4 13 4 C12.01 4 11.02 4 10 4 C10 4.66 10 5.32 10 6 C9.01 6.495 9.01 6.495 8 7 C7.67 15.25 7.34 23.5 7 32 C7.99 32 8.98 32 10 32 C10 31.01 10 30.02 10 29 C10.99 29 11.98 29 13 29 C13 27.02 13 25.04 13 23 C17.29 23 21.58 23 26 23 C26 24.98 26 26.96 26 29 C23.5625 31.25 23.5625 31.25 21 33 C20.67 33.66 20.34 34.32 20 35 C13.4 35 6.8 35 0 35 C0 34.01 0 33.02 0 32 C-0.99 32 -1.98 32 -3 32 C-3 31.01 -3 30.02 -3 29 C-3.99 29 -4.98 29 -6 29 C-6 21.41 -6 13.82 -6 6 C-5.01 6 -4.02 6 -3 6 C-3 5.34 -3 4.68 -3 4 C-2.34 3.67 -1.68 3.34 -1 3 C-0.67 2.01 -0.34 1.02 0 0 Z " fill="#FF3838" transform="translate(225,272)"/>
<path d="M0 0 C4.29 0 8.58 0 13 0 C13 2.64 13 5.28 13 8 C15.31 8 17.62 8 20 8 C20 8.99 20 9.98 20 11 C18.02 11 16.04 11 14 11 C14 20.57 14 30.14 14 40 C14.66 40 15.32 40 16 40 C15.979375 39.030625 15.95875 38.06125 15.9375 37.0625 C16 34 16 34 17 33 C18.51928038 32.92820036 20.04167482 32.91607993 21.5625 32.9375 C22.38878906 32.94652344 23.21507812 32.95554687 24.06640625 32.96484375 C24.70449219 32.97644531 25.34257812 32.98804688 26 33 C26 35.31 26 37.62 26 40 C24.68 40 23.36 40 22 40 C22 40.99 22 41.98 22 43 C15.73 43 9.46 43 3 43 C3 42.01 3 41.02 3 40 C2.01 40 1.02 40 0 40 C0 30.43 0 20.86 0 11 C-0.99 11 -1.98 11 -3 11 C-3 10.01 -3 9.02 -3 8 C-2.01 8 -1.02 8 0 8 C0 5.36 0 2.72 0 0 Z " fill="#FF3939" transform="translate(337,264)"/>
<path d="M0 0 C4.29 0 8.58 0 13 0 C13.33 2.64 13.66 5.28 14 8 C16.97 8.495 16.97 8.495 20 9 C20 9.66 20 10.32 20 11 C18.02 11.33 16.04 11.66 14 12 C13.67 21.24 13.34 30.48 13 40 C13.99 40 14.98 40 16 40 C15.979375 39.030625 15.95875 38.06125 15.9375 37.0625 C16 34 16 34 17 33 C18.51928038 32.92820036 20.04167482 32.91607993 21.5625 32.9375 C22.38878906 32.94652344 23.21507812 32.95554688 24.06640625 32.96484375 C24.70449219 32.97644531 25.34257812 32.98804688 26 33 C26 35.31 26 37.62 26 40 C24.68 40 23.36 40 22 40 C22 40.99 22 41.98 22 43 C15.73 43 9.46 43 3 43 C3 42.01 3 41.02 3 40 C2.01 40 1.02 40 0 40 C0 30.43 0 20.86 0 11 C-0.99 11 -1.98 11 -3 11 C-3 10.34 -3 9.68 -3 9 C-2.01 9 -1.02 9 0 9 C0 6.03 0 3.06 0 0 Z " fill="#040404" transform="translate(292,195)"/>
<path d="M0 0 C0.99 0 1.98 0 3 0 C3 0.99 3 1.98 3 3 C3.99 3 4.98 3 6 3 C6 8.61 6 14.22 6 20 C5.01 20 4.02 20 3 20 C3 20.99 3 21.98 3 23 C2.01 23 1.02 23 0 23 C0 15.41 0 7.82 0 0 Z " fill="#FFF9F9" transform="translate(153,281)"/>
<path d="M0 0 C0.99 0 1.98 0 3 0 C3 0.99 3 1.98 3 3 C3.99 3 4.98 3 6 3 C6 8.61 6 14.22 6 20 C5.01 20 4.02 20 3 20 C3 20.99 3 21.98 3 23 C2.01 23 1.02 23 0 23 C0 15.41 0 7.82 0 0 Z " fill="#EEEEEE" transform="translate(186,212)"/>
<path d="M0 0 C1.07894531 0.03480469 2.15789062 0.06960937 3.26953125 0.10546875 C4.35621094 0.13253906 5.44289063 0.15960938 6.5625 0.1875 C7.80966797 0.23970703 7.80966797 0.23970703 9.08203125 0.29296875 C9.41203125 1.28296875 9.74203125 2.27296875 10.08203125 3.29296875 C10.74203125 3.29296875 11.40203125 3.29296875 12.08203125 3.29296875 C12.08203125 5.60296875 12.08203125 7.91296875 12.08203125 10.29296875 C11.42203125 10.29296875 10.76203125 10.29296875 10.08203125 10.29296875 C10.08203125 11.28296875 10.08203125 12.27296875 10.08203125 13.29296875 C8.76203125 13.29296875 7.44203125 13.29296875 6.08203125 13.29296875 C6.08203125 9.99296875 6.08203125 6.69296875 6.08203125 3.29296875 C2.12203125 3.29296875 -1.83796875 3.29296875 -5.91796875 3.29296875 C-2.91796875 0.29296875 -2.91796875 0.29296875 0 0 Z " fill="#D0D0D0" transform="translate(257.91796875,221.70703125)"/>
<path d="M0 0 C1.65 0 3.3 0 5 0 C5 3.3 5 6.6 5 10 C4.01 10 3.02 10 2 10 C2 10.99 2 11.98 2 13 C1.01 13 0.02 13 -1 13 C-1.02686553 11.02090602 -1.04633375 9.04171029 -1.0625 7.0625 C-1.07410156 5.96035156 -1.08570313 4.85820312 -1.09765625 3.72265625 C-1 1 -1 1 0 0 Z " fill="#FFEEEE" transform="translate(310,291)"/>
<path d="M0 0 C1.65 0 3.3 0 5 0 C6 1 6 1 6.09765625 3.06640625 C6.08605469 3.89011719 6.07445312 4.71382813 6.0625 5.5625 C6.05347656 6.38878906 6.04445312 7.21507812 6.03515625 8.06640625 C6.01775391 9.02353516 6.01775391 9.02353516 6 10 C5.01 10 4.02 10 3 10 C3 10.99 3 11.98 3 13 C2.01 13 1.02 13 0 13 C0 8.71 0 4.42 0 0 Z " fill="#FFEEEE" transform="translate(193,291)"/>
<path d="M0 0 C0.66 0 1.32 0 2 0 C2 4.29 2 8.58 2 13 C0.02 13 -1.96 13 -4 13 C-4 10.03 -4 7.06 -4 4 C-3.01 3.67 -2.02 3.34 -1 3 C-0.67 2.01 -0.34 1.02 0 0 Z " fill="#E3E3E3" transform="translate(230,206)"/>
<path d="M0 0 C0.99 0 1.98 0 3 0 C3 0.99 3 1.98 3 3 C3.99 3 4.98 3 6 3 C6 5.31 6 7.62 6 10 C5.01 10.33 4.02 10.66 3 11 C3 11.99 3 12.98 3 14 C2.01 14 1.02 14 0 14 C0 9.38 0 4.76 0 0 Z " fill="#FFF5F5" transform="translate(153,264)"/>
<path d="M0 0 C0.99 0 1.98 0 3 0 C3 0.99 3 1.98 3 3 C3.99 3 4.98 3 6 3 C6 5.31 6 7.62 6 10 C5.01 10.33 4.02 10.66 3 11 C2.67 11.99 2.34 12.98 2 14 C1.34 14 0.68 14 0 14 C0 9.38 0 4.76 0 0 Z " fill="#ECECEC" transform="translate(186,195)"/>
</svg>
